<svg xmlns="http://www.w3.org/2000/svg" xmlns:xlink="http://www.w3.org/1999/xlink" version="1.1" x="0px" y="0px" viewBox="0 0 100 125" style="enable-background:new 0 0 100 100;" xml:space="preserve"><style type="text/css">
	.st0{fill:none;stroke:#000000;stroke-width:2;stroke-miterlimit:10;}
</style><g><g><path d="M41.8,32.9c0.8,0,1.6,0.3,2.1,0.9l10.6,10.6l3.5,3.5c0.6,0.6,0.9,1.3,0.9,2.1s-0.3,1.6-0.9,2.1l-3.5,3.5L43.9,66.3    c-0.6,0.6-1.3,0.9-2.1,0.9s-1.6-0.3-2.1-0.9c-1.2-1.2-1.2-3.1,0-4.2l5.6-5.6l3.4-3.4h-4.8H10c-1.7,0-3-1.3-3-3s1.3-3,3-3h33.9h4.8    l-3.4-3.4L39.7,38c-1.2-1.2-1.2-3.1,0-4.2C40.2,33.2,41,32.9,41.8,32.9 M41.8,30.9c-1.3,0-2.6,0.5-3.5,1.5v0c-2,2-2,5.1,0,7.1    l5.6,5.6H10c-2.8,0-5,2.2-5,5s2.2,5,5,5h33.9l-5.6,5.6c-2,2-2,5.1,0,7.1l0,0c1,1,2.3,1.5,3.5,1.5s2.6-0.5,3.5-1.5l10.6-10.6    l3.5-3.5c2-2,2-5.1,0-7.1l-3.5-3.5L45.3,32.3C44.3,31.3,43.1,30.9,41.8,30.9L41.8,30.9z"/></g><g><path d="M90,7c1.7,0,3,1.3,3,3v80c0,1.7-1.3,3-3,3H28.5c-1.7,0-3-1.3-3-3V80c0-1.7,1.3-3,3-3s3,1.3,3,3v3c0,2.2,1.8,4,4,4H83    c2.2,0,4-1.8,4-4V17c0-2.2-1.8-4-4-4H35.5c-2.2,0-4,1.8-4,4v3c0,1.7-1.3,3-3,3s-3-1.3-3-3V10c0-1.7,1.3-3,3-3H90 M90,5H28.5    c-2.8,0-5,2.2-5,5v10c0,2.8,2.2,5,5,5s5-2.2,5-5v-3c0-1.1,0.9-2,2-2H83c1.1,0,2,0.9,2,2v66c0,1.1-0.9,2-2,2H35.5c-1.1,0-2-0.9-2-2    v-3c0-2.8-2.2-5-5-5s-5,2.2-5,5v10c0,2.8,2.2,5,5,5H90c2.8,0,5-2.2,5-5V10C95,7.2,92.8,5,90,5L90,5z"/></g></g></svg>