<svg xmlns:dc="http://purl.org/dc/elements/1.1/" xmlns:cc="http://creativecommons.org/ns#" xmlns:rdf="http://www.w3.org/1999/02/22-rdf-syntax-ns#" xmlns:svg="http://www.w3.org/2000/svg" xmlns="http://www.w3.org/2000/svg" xmlns:sodipodi="http://sodipodi.sourceforge.net/DTD/sodipodi-0.dtd" xmlns:inkscape="http://www.inkscape.org/namespaces/inkscape" version="1.1" x="0px" y="0px" viewBox="0 0 100 125"><g transform="translate(0,-952.36218)"><path style="font-size:medium;font-style:normal;font-variant:normal;font-weight:normal;font-stretch:normal;text-indent:0;text-align:start;text-decoration:none;line-height:normal;letter-spacing:normal;word-spacing:normal;text-transform:none;direction:ltr;block-progression:tb;writing-mode:lr-tb;text-anchor:start;baseline-shift:baseline;opacity:1;color:#000000;fill:#000000;fill-opacity:1;stroke:none;stroke-width:6;marker:none;visibility:visible;display:inline;overflow:visible;enable-background:accumulate;font-family:Sans;-inkscape-font-specification:Sans" d="M 36.6875 5 A 3.0003 3.0003 0 0 0 34 8 L 34 13 L 20 13 A 3.0003 3.0003 0 0 0 19.6875 13 A 3.0003 3.0003 0 0 0 17 16 L 17 92 A 3.0003 3.0003 0 0 0 20 95 L 80 95 A 3.0003 3.0003 0 0 0 83 92 L 83 16 A 3.0003 3.0003 0 0 0 80 13 L 66 13 L 66 8 A 3.0003 3.0003 0 0 0 63 5 L 37 5 A 3.0003 3.0003 0 0 0 36.6875 5 z M 40 11 L 60 11 L 60 17 L 40 17 L 40 11 z M 23 19 L 34 19 L 34 20 A 3.0003 3.0003 0 0 0 37 23 L 63 23 A 3.0003 3.0003 0 0 0 66 20 L 66 19 L 77 19 L 77 27 L 23 27 L 23 19 z M 23 33 L 77 33 L 77 89 L 23 89 L 23 33 z M 41.65625 37.96875 A 3.0003 3.0003 0 0 0 39.875 38.875 L 34 44.75 L 32.125 42.875 A 3.0003 3.0003 0 1 0 27.875 47.09375 L 31.875 51.09375 A 3.0003 3.0003 0 0 0 36.125 51.09375 L 44.125 43.09375 A 3.0003 3.0003 0 0 0 41.65625 37.96875 z M 50.6875 43 A 3.0040663 3.0040663 0 1 0 51 49 L 70 49 A 3.0003 3.0003 0 1 0 70 43 L 51 43 A 3.0003 3.0003 0 0 0 50.6875 43 z M 41.65625 52.96875 A 3.0003 3.0003 0 0 0 39.875 53.875 L 34 59.75 L 32.125 57.875 A 3.0003 3.0003 0 1 0 27.875 62.09375 L 31.875 66.09375 A 3.0003 3.0003 0 0 0 36.125 66.09375 L 44.125 58.09375 A 3.0003 3.0003 0 0 0 41.65625 52.96875 z M 50.6875 58 A 3.0040663 3.0040663 0 1 0 51 64 L 70 64 A 3.0003 3.0003 0 1 0 70 58 L 51 58 A 3.0003 3.0003 0 0 0 50.6875 58 z M 41.65625 67.96875 A 3.0003 3.0003 0 0 0 39.875 68.875 L 34 74.75 L 32.125 72.875 A 3.0003 3.0003 0 1 0 27.875 77.09375 L 31.875 81.09375 A 3.0003 3.0003 0 0 0 36.125 81.09375 L 44.125 73.09375 A 3.0003 3.0003 0 0 0 41.65625 67.96875 z M 50.6875 73 A 3.0040663 3.0040663 0 1 0 51 79 L 70 79 A 3.0003 3.0003 0 1 0 70 73 L 51 73 A 3.0003 3.0003 0 0 0 50.6875 73 z " transform="translate(0,952.36218)"/></g></svg>